PathFileType	4	(X/Y/Z)	RBDS011\RBDS011runT45.trc
DataRate	CameraRate	NumFrames	NumMarkers	Units	OrigDataRate	OrigDataStartFrame	OrigNumFrames
150.000000	150.000000	4	33	mm	150.000000	3937	4500
Frame#	Time	L.ASIS			L.Heel.Bottom			L.Heel.Lateral			L.Heel.Top			L.Iliac.Crest			L.MT1			L.MT5			L.PSIS			L.Shank.Bottom.Lateral			L.Shank.Bottom.Medial			L.Shank.Top.Lateral			L.Shank.Top.Medial			L.Thigh.Bottom.Lateral			L.Thigh.Bottom.Medial			L.Thigh.Top.Lateral			L.Thigh.Top.Medial			R.ASIS			R.ASY			R.Heel.Bottom			R.Heel.Lateral			R.Heel.Top			R.Iliac.Crest			R.MT1			R.MT5			R.PSIS			R.Shank.Bottom.Lateral			R.Shank.Bottom.Medial			R.Shank.Top.Lateral			R.Shank.Top.Medial			R.Thigh.Bottom.Lateral			R.Thigh.Bottom.Medial			R.Thigh.Top.Lateral			R.Thigh.Top.Medial			
		X1	Y1	Z1	X2	Y2	Z2	X3	Y3	Z3	X4	Y4	Z4	X5	Y5	Z5	X6	Y6	Z6	X7	Y7	Z7	X8	Y8	Z8	X9	Y9	Z9	X10	Y10	Z10	X11	Y11	Z11	X12	Y12	Z12	X13	Y13	Z13	X14	Y14	Z14	X15	Y15	Z15	X16	Y16	Z16	X17	Y17	Z17	X18	Y18	Z18	X19	Y19	Z19	X20	Y20	Z20	X21	Y21	Z21	X22	Y22	Z22	X23	Y23	Z23	X24	Y24	Z24	X25	Y25	Z25	X26	Y26	Z26	X27	Y27	Z27	X28	Y28	Z28	X29	Y29	Z29	X30	Y30	Z30	X31	Y31	Z31	X32	Y32	Z32	X33	Y33	Z33	

3938	26.24666666666667	2402.696509665367	988.3934473934831	930.3811085152693	1701.392131344489	366.9593566345133	1017.736204189728	1715.554851036909	341.1736017117181	979.0559687335891	1750.959100498236	365.7158063458685	1014.498045094807	2384.025844899837	1078.83716717316	907.4082392829208	1760.474698880603	150.4112562993372	1070.775744888438	1734.438198496867	166.6232291285875	960.1474629118946	2251.317915997258	1062.116492107829	1009.359661029756	1833.137190468331	360.2885665390381	958.173327610904	1813.856904868572	387.6895685648333	1002.505738155101	1889.386823308581	416.5059776688515	948.5204085688312	1870.866512445494	444.0778035513553	990.818729565054	2166.736207579203	651.357593249316	920.5709026397196	2114.907373052636	677.7738723484515	964.9620825788761	2199.84513505574	755.3092293269257	903.0501731497334	2153.702664403715	779.6600130271479	947.5506685575392	2419.863172933906	1013.735569540029	1164.093186089611	2741.297020614546	184.735204003064	1120.375021111686	2593.612050973144	65.43613355675713	1098.602694825485	2610.599682465419	86.79459051591859	1142.763336184999	2585.621341034839	114.7654421843867	1105.887952091461	2375.713137190377	1086.527121724208	1207.896528744353	2798.405888015256	158.1784161446594	1065.912477019638	2778.843419892401	127.1030736178455	1176.794704174915	2252.46057734128	1066.76517364161	1111.912009145272	2601.183946352169	217.0319389227201	1164.365602531643	2570.229048595136	220.2847232011329	1122.771082524069	2578.895375290922	295.9601427430422	1184.993581096085	2545.886314548542	294.61317811254	1143.540260395424	2501.652785129299	666.2516058343845	1226.857623669466	2447.601541340307	633.6544010997053	1189.315438273928	2436.607841721016	753.0147849134729	1241.189237670457	2384.891275139002	722.7276371459941	1207.114937706574	
3939	26.25333333333333	2403.05351968642	989.6207051179454	930.2347195118273	1698.542330666845	389.3218179907997	1018.005530916924	1711.023049153631	362.3368277204368	979.7581382896702	1747.923414926378	385.1369779263018	1014.942061315077	2381.563631088214	1081.670819593631	908.0647466375411	1745.637255685454	170.2916934692942	1072.572821908052	1719.911809351186	187.0114524177303	962.1054757454134	2251.325280646015	1063.389924618177	1009.180700302427	1829.212261207063	374.060937587378	958.7166497818346	1811.639592679741	402.9639456546063	1002.750321211237	1888.732039078096	426.7251992235296	948.7693213599035	1871.842011221912	455.8067181773044	990.7102606373224	2172.996645244403	648.0187126882328	920.3881162813326	2120.501631364004	673.683797572273	964.3677719749925	2204.40674825586	752.3545374651449	902.6107353490366	2157.396377288295	776.1415993278951	946.5728545874525	2419.207732076234	1013.318971289495	1164.141570193216	2753.920144273673	190.4520264545519	1117.662263961208	2612.491164748726	62.42629657743377	1100.064473093588	2629.770749036315	84.39963604691408	1143.759696191428	2601.617189383796	111.228463143321	1108.107379238277	2375.120691949072	1086.090050768264	1207.810079203762	2810.773193690773	168.2258291907321	1060.820747932502	2797.009947667031	134.2076460955105	1172.195037204328	2251.943084123274	1067.406453740085	1111.759275885219	2612.607961671039	215.4730910448091	1165.186924704606	2580.864490218317	217.1794871262209	1123.992829295326	2586.620428931972	293.267238946218	1185.950486415486	2553.064328988499	290.3164060205276	1145.079555403375	2495.935277793095	662.6461002788158	1228.861122035987	2442.315277392725	631.7673273521664	1189.423445182631	2432.071355210086	750.3121341195875	1243.190459334586	2380.605216570593	721.5817067359142	1207.488405895914	
3940	26.26	2403.519703162078	990.5241616205872	930.1272856395484	1697.651442227476	411.7415124233112	1018.351144286322	1708.423509474615	383.6275875922826	980.615854154416	1746.607206855103	404.7226158280072	1015.513936543642	2378.435148794882	1083.905993688667	908.5319390384285	1732.840084059152	191.3730862721602	1074.909426244686	1707.548504731647	208.3398809764669	964.4537203383453	2251.230863146454	1063.717045502942	1008.99376777935	1826.946650173535	388.0269153624744	959.4526945692702	1811.195302979709	418.5450945422836	1003.044957234834	1889.66004725555	436.8202925194342	949.0589626807862	1874.519946766566	467.5074434826697	990.5382040594551	2180.074918770182	643.8243382877797	919.8913904558267	2126.861820853989	668.5475865519156	963.486166952153	2209.439635132866	748.6219576501683	901.912094980606	2161.498827483102	771.6923226651807	945.3607762917048	2418.374002217397	1012.636699217477	1164.418918143673	2762.790321253451	194.9854110762631	1115.46007786057	2626.828809420068	59.87272346167779	1101.677592270112	2644.440576363756	82.4069794435683	1144.934242716566	2613.57162107485	108.1446677589263	1110.383219099314	2374.103749473448	1085.034302061274	1207.997853508602	2819.105355804908	176.3249089625556	1056.521416901961	2810.549229836193	140.0708314674578	1168.296117575528	2251.235480071387	1067.185255149989	1111.562760320268	2620.908570020014	214.0548083528776	1166.089831013072	2588.471449333972	214.378360741621	1125.318865228868	2591.980611312506	290.8470451743906	1186.891561496068	2557.934035660537	286.4713382681896	1146.553287923675	2490.379442473582	659.0160832542805	1230.412232826968	2437.189776620351	629.7866829744439	1189.168664584941	2427.610837640929	747.4922109791621	1244.836784848279	2376.424405252401	720.276346772134	1207.594253408543	
3941	26.26666666666667	2404.116897332693	991.0351351331102	930.0792575353451	1698.990108079225	434.0424839578031	1018.709518672355	1708.025101665659	404.8822179446807	981.5276107061466	1747.314907493812	424.2661127701768	1016.127474936488	2374.887538667478	1085.359032489603	908.771079250447	1722.251311404774	213.296661562214	1077.631644584909	1697.534381567132	230.3251112454653	967.05722430111	2251.09300818656	1063.056455609361	1008.77552556297	1826.521177480487	402.0166673996913	960.3046094187714	1812.67466512233	434.1763263638886	1003.340587924134	1892.244185093909	446.6967179791905	949.3534721694762	1878.947433943455	478.9988227312213	990.2932411749204	2187.727145348464	638.9764194647382	919.1242173876957	2133.826910696128	662.5881808858867	962.4375167041754	2214.777578482418	744.28408331047	901.0258341309418	2165.940305053628	766.4947431503487	944.0624564507706	2417.395428010693	1011.771346325113	1164.939292784681	2767.970022091602	197.8310662692696	1113.867938393198	2636.390703466974	57.35855249442353	1103.285956357621	2654.313271267027	80.38298032760572	1146.170440051936	2621.30934174612	105.1713825764261	1112.51644521521	2372.671991167465	1083.433324625739	1208.43808644719	2823.647039285004	181.84792143374	1053.245557640675	2819.341149193481	144.0631218105024	1165.313162580083	2250.407659393016	1066.111498245012	1111.288747804646	2625.992347736797	212.4340364616818	1166.999583403659	2592.960734856008	211.5868917480843	1126.657270440907	2594.909859016022	288.4443228134012	1187.756467787409	2560.426340755599	282.8646956333752	1147.880443333175	2485.118036051537	655.4186246656744	1231.356953208717	2432.287528580246	627.6874081218741	1188.54573835184	2423.367871458141	744.6242972974252	1245.943703931229	2372.423099904075	718.7967503273057	1207.396253898554	
